<svg width="346" height="153" viewBox="0 0 346 153" fill="none" xmlns="http://www.w3.org/2000/svg">
<path d="M28.15 81.93C28.15 88.6033 29.3967 93.59 31.89 96.89C34.4567 100.117 37.6833 101.73 41.57 101.73C43.4767 101.73 45.2 101.363 46.74 100.63C48.3533 99.8233 49.8567 98.6867 51.25 97.22V65.65C48.0233 62.8633 44.8333 61.47 41.68 61.47C38.0133 61.47 34.8233 63.12 32.11 66.42C29.47 69.72 28.15 74.89 28.15 81.93ZM52.57 109.21L51.69 102.28C49.6367 104.627 47.3633 106.423 44.87 107.67C42.3767 108.917 39.5167 109.54 36.29 109.54C31.9633 109.54 28.1133 108.44 24.74 106.24C21.44 104.04 18.8367 100.887 16.93 96.78C15.0233 92.6733 14.07 87.7967 14.07 82.15C14.07 76.3567 15.1333 71.3333 17.26 67.08C19.46 62.8267 22.3567 59.5633 25.95 57.29C29.6167 54.9433 33.6133 53.77 37.94 53.77C40.7267 53.77 43.22 54.2833 45.42 55.31C47.6933 56.3367 49.82 58.0233 51.8 60.37V37.71L43.22 36.61V32.32L63.35 27.37L65 28.36L64.56 43.87V102.28L71.71 103.49V108L52.57 109.21ZM96.0286 109.54C92.6553 109.54 89.5386 109.137 86.6786 108.33C83.8919 107.597 81.1053 106.46 78.3186 104.92L78.2086 92.16H85.5786L87.5586 102.39C90.1986 103.49 93.0586 104.04 96.1386 104.04C99.8786 104.04 102.665 103.38 104.499 102.06C106.332 100.74 107.249 98.9067 107.249 96.56C107.249 94.5067 106.515 92.8567 105.049 91.61C103.582 90.29 101.089 89.0433 97.5686 87.87L92.0686 86C87.9619 84.68 84.6986 82.7367 82.2786 80.17C79.9319 77.6033 78.7586 74.3767 78.7586 70.49C78.7586 67.41 79.5653 64.6233 81.1786 62.13C82.7919 59.5633 85.1386 57.5467 88.2186 56.08C91.3719 54.54 95.1853 53.77 99.6586 53.77C102.812 53.77 105.672 54.1733 108.239 54.98C110.879 55.7133 113.482 56.8133 116.049 58.28L115.499 69.83H108.239L106.259 60.59C104.205 59.71 101.932 59.27 99.4386 59.27C96.5053 59.27 94.2319 59.8933 92.6186 61.14C91.0053 62.3867 90.1986 64.0733 90.1986 66.2C90.1986 68.18 90.8586 69.7933 92.1786 71.04C93.5719 72.2133 96.1386 73.4233 99.8786 74.67L104.279 75.99C109.632 77.8233 113.445 80.0967 115.719 82.81C117.992 85.5233 119.129 88.7867 119.129 92.6C119.129 97.5133 117.112 101.583 113.079 104.81C109.119 107.963 103.435 109.54 96.0286 109.54ZM124.042 108V103.49L131.522 102.06C131.595 99.2733 131.632 96.34 131.632 93.26C131.705 90.18 131.742 87.3933 131.742 84.9V37.71L123.712 36.61V32.32L143.732 27.37L145.382 28.36L144.942 43.87V80.06L163.202 61.58L154.952 59.93L155.062 55.31H181.022V59.93L171.012 61.36L159.902 72.14L176.842 101.95L183.992 103.49V108H165.402L150.662 81.16L144.942 86.77C144.942 89.2633 144.942 91.8667 144.942 94.58C145.015 97.22 145.088 99.75 145.162 102.17L152.532 103.49V108H124.042ZM187.981 108V103.49L195.021 102.17C195.094 99.3833 195.131 96.4133 195.131 93.26C195.131 90.0333 195.131 87.2467 195.131 84.9V79.07C195.131 76.0633 195.094 73.68 195.021 71.92C195.021 70.0867 194.948 68.07 194.801 65.87L187.101 64.88V60.7L205.471 53.77L207.231 54.87L208.331 67.85C210.018 63.3033 212.291 59.82 215.151 57.4C218.011 54.98 220.871 53.77 223.731 53.77C225.711 53.77 227.508 54.2833 229.121 55.31C230.808 56.3367 231.908 57.8033 232.421 59.71C232.348 62.4233 231.688 64.55 230.441 66.09C229.194 67.5567 227.471 68.29 225.271 68.29C222.631 68.29 220.138 66.97 217.791 64.33L216.801 63.23C212.914 66.4567 210.128 71.0033 208.441 76.87V84.9C208.441 87.1733 208.441 89.8867 208.441 93.04C208.441 96.12 208.478 99.0167 208.551 101.73L217.571 103.49V108H187.981ZM236.42 133.63V129.12L243.9 127.69C243.974 124.463 244.01 121.347 244.01 118.34C244.084 115.407 244.12 112.547 244.12 109.76V79.07C244.12 76.0633 244.084 73.68 244.01 71.92C244.01 70.0867 243.937 68.07 243.79 65.87L236.09 64.88V60.7L254.35 53.77L256.11 54.87L256.66 61.58C261.647 56.3733 267.147 53.77 273.16 53.77C277.12 53.77 280.714 54.87 283.94 57.07C287.167 59.1967 289.697 62.3133 291.53 66.42C293.437 70.5267 294.39 75.5133 294.39 81.38C294.39 87.1733 293.327 92.1967 291.2 96.45C289.147 100.63 286.397 103.857 282.95 106.13C279.504 108.403 275.654 109.54 271.4 109.54C268.687 109.54 266.157 109.027 263.81 108C261.464 106.973 259.227 105.323 257.1 103.05V109.65C257.1 112.363 257.1 115.187 257.1 118.12C257.174 121.127 257.247 124.243 257.32 127.47L265.9 129.12V133.63H236.42ZM267.99 61.58C266.304 61.58 264.58 62.02 262.82 62.9C261.134 63.78 259.337 64.9533 257.43 66.42V97.55C260.51 100.41 263.774 101.84 267.22 101.84C270.887 101.84 273.967 100.263 276.46 97.11C279.027 93.8833 280.31 88.86 280.31 82.04C280.31 75.2933 279.174 70.1967 276.9 66.75C274.627 63.3033 271.657 61.58 267.99 61.58ZM320.993 109.54C316.593 109.54 313.147 108.44 310.653 106.24C308.16 104.04 306.913 100.52 306.913 95.68C306.913 93.9933 306.913 92.4167 306.913 90.95C306.987 89.41 307.023 87.5767 307.023 85.45V62.02H298.883V56.3L307.793 55.2L311.973 40.13H320.883L320.443 55.31H333.643V62.02H320.333V94.47C320.333 97.1833 320.847 99.1633 321.873 100.41C322.973 101.657 324.403 102.28 326.163 102.28C328.143 102.28 330.38 101.363 332.873 99.53L335.513 102.28C334.12 104.553 332.213 106.35 329.793 107.67C327.373 108.917 324.44 109.54 320.993 109.54Z" fill="#272727"/>
</svg>
