<svg id="Gruppe_666" data-name="Gruppe 666" xmlns="http://www.w3.org/2000/svg" xmlns:xlink="http://www.w3.org/1999/xlink" width="179.5" height="41.262" viewBox="0 0 179.5 41.262">
  <defs>
    <linearGradient id="linear-gradient" x1="0.991" y1="-0.018" x2="0.019" y2="1.008" gradientUnits="objectBoundingBox">
      <stop offset="0" stop-color="#f3c852"/>
      <stop offset="0.502" stop-color="#ff6658"/>
      <stop offset="0.829" stop-color="#9c4982"/>
      <stop offset="1" stop-color="#673a99"/>
    </linearGradient>
    <linearGradient id="linear-gradient-2" x1="12.995" y1="-16.487" x2="-4.048" y2="6.694" xlink:href="#linear-gradient"/>
    <linearGradient id="linear-gradient-3" x1="21.156" y1="-15.462" x2="-8.037" y2="7.217" xlink:href="#linear-gradient"/>
    <linearGradient id="linear-gradient-4" x1="20.734" y1="-10.787" x2="-9.011" y2="5.806" xlink:href="#linear-gradient"/>
    <linearGradient id="linear-gradient-5" x1="30.747" y1="-15.013" x2="-14.948" y2="8.168" xlink:href="#linear-gradient"/>
    <linearGradient id="linear-gradient-6" x1="19.984" y1="-10.063" x2="-10.625" y2="6.531" xlink:href="#linear-gradient"/>
    <linearGradient id="linear-gradient-7" x1="19.351" y1="-13.923" x2="-10.962" y2="9.258" xlink:href="#linear-gradient"/>
    <linearGradient id="linear-gradient-8" x1="18.347" y1="-13.401" x2="-11.398" y2="9.78" xlink:href="#linear-gradient"/>
    <linearGradient id="linear-gradient-9" x1="17.464" y1="-8.684" x2="-11.73" y2="7.485" xlink:href="#linear-gradient"/>
    <linearGradient id="linear-gradient-10" x1="16.828" y1="-12.099" x2="-12.365" y2="10.581" xlink:href="#linear-gradient"/>
    <linearGradient id="linear-gradient-11" x1="16.453" y1="-11.927" x2="-13.287" y2="11.254" xlink:href="#linear-gradient"/>
    <linearGradient id="linear-gradient-12" x1="76.415" y1="-55.173" x2="-66.892" y2="49.922" xlink:href="#linear-gradient"/>
    <linearGradient id="linear-gradient-13" x1="13.817" y1="-7.548" x2="-12.675" y2="8.456" xlink:href="#linear-gradient"/>
    <linearGradient id="linear-gradient-14" x1="13.194" y1="-10.559" x2="-13.299" y2="12.622" xlink:href="#linear-gradient"/>
    <linearGradient id="linear-gradient-15" x1="14.092" y1="-10.085" x2="-15.654" y2="13.096" xlink:href="#linear-gradient"/>
    <linearGradient id="linear-gradient-16" x1="14.565" y1="-9.864" x2="-17.606" y2="13.841" xlink:href="#linear-gradient"/>
    <linearGradient id="linear-gradient-17" x1="13.564" y1="-8.803" x2="-18.285" y2="13.88" xlink:href="#linear-gradient"/>
    <linearGradient id="linear-gradient-18" x1="62.409" y1="-6.154" x2="-95.298" y2="10.797" xlink:href="#linear-gradient"/>
    <linearGradient id="linear-gradient-19" x1="13.714" y1="-8.221" x2="-20.557" y2="14.623" xlink:href="#linear-gradient"/>
    <linearGradient id="linear-gradient-20" x1="11.196" y1="-5.466" x2="-18.55" y2="11.127" xlink:href="#linear-gradient"/>
    <linearGradient id="linear-gradient-21" x1="10.569" y1="-7.236" x2="-18.625" y2="15.443" xlink:href="#linear-gradient"/>
    <linearGradient id="linear-gradient-22" x1="15.166" y1="-7.109" x2="-30.529" y2="16.072" xlink:href="#linear-gradient"/>
    <linearGradient id="linear-gradient-23" x1="47.142" y1="-33.706" x2="-96.164" y2="71.389" xlink:href="#linear-gradient"/>
  </defs>
  <path id="Rechteck_752" data-name="Rechteck 752" d="M0,0H27.823A12.511,12.511,0,0,1,40.333,12.511v25.7a0,0,0,0,1,0,0H12.511A12.511,12.511,0,0,1,0,25.7V0A0,0,0,0,1,0,0Z" transform="translate(0 0.096)" fill="url(#linear-gradient)"/>
  <path id="Pfad_17513" data-name="Pfad 17513" d="M55.228,41.6H54.3V35.444h.925v.416a3.421,3.421,0,0,1,1.8-.556,1.786,1.786,0,0,1,1.573.6,3.878,3.878,0,0,1,1.064-.416,3.675,3.675,0,0,1,1.11-.185,1.879,1.879,0,0,1,1.665.647,4.738,4.738,0,0,1,.416,2.36V41.55h-.925V38.358A4.947,4.947,0,0,0,61.7,36.6c-.138-.325-.508-.463-1.017-.463a5.077,5.077,0,0,0-.832.093,3.263,3.263,0,0,0-.648.231l-.231.093a7.16,7.16,0,0,1,.139,1.8V41.55h-.926V38.4a5.1,5.1,0,0,0-.231-1.8c-.139-.325-.509-.463-1.064-.463a4.548,4.548,0,0,0-.787.093,3.251,3.251,0,0,0-.647.231l-.185.093V41.6Z" transform="translate(-4.926 -3.203)" fill="url(#linear-gradient-2)"/>
  <path id="Pfad_17514" data-name="Pfad 17514" d="M69.154,38.168a2.6,2.6,0,0,0-.37-1.572,1.526,1.526,0,0,0-1.2-.463,1.435,1.435,0,0,0-1.249.509,2.371,2.371,0,0,0-.416,1.572Zm.324,2.637.37-.046.046.74a15.989,15.989,0,0,1-2.406.185,2.222,2.222,0,0,1-1.9-.787,4.1,4.1,0,0,1-.555-2.406c0-2.174.833-3.238,2.544-3.238a2.343,2.343,0,0,1,1.85.694,3.213,3.213,0,0,1,.6,2.174l-.046.695h-4.07a2.642,2.642,0,0,0,.369,1.526,1.484,1.484,0,0,0,1.3.509A12.963,12.963,0,0,0,69.478,40.805Z" transform="translate(-5.9 -3.198)" fill="url(#linear-gradient-3)"/>
  <path id="Pfad_17515" data-name="Pfad 17515" d="M72.779,41.347h-.925V32.558h.925v3.007a4.235,4.235,0,0,1,1.9-.463,1.879,1.879,0,0,1,1.665.647,4.86,4.86,0,0,1,.416,2.36v3.238h-.925V38.156A4.947,4.947,0,0,0,75.6,36.4c-.138-.324-.508-.463-1.064-.463a4.019,4.019,0,0,0-1.48.277l-.231.093Z" transform="translate(-6.518 -2.953)" fill="url(#linear-gradient-4)"/>
  <path id="Pfad_17516" data-name="Pfad 17516" d="M78.874,41.6V35.444H79.8v.832a5.464,5.464,0,0,1,2.266-.971v.926A5.418,5.418,0,0,0,81,36.554a7.976,7.976,0,0,0-.832.37l-.325.138V41.55Z" transform="translate(-7.155 -3.203)" fill="url(#linear-gradient-5)"/>
  <path id="Pfad_17517" data-name="Pfad 17517" d="M86.871,41.347h-.925V32.558h.925v5.181l.971-.046,1.758-2.5h1.018l-1.989,2.822,2.082,3.331H89.692l-1.85-2.868-.971.046Z" transform="translate(-7.796 -2.953)" fill="url(#linear-gradient-6)"/>
  <path id="Pfad_17518" data-name="Pfad 17518" d="M95.986,35.458h.926V41.61h-.926v-.416a3.416,3.416,0,0,1-1.8.556,1.878,1.878,0,0,1-1.665-.648A4.831,4.831,0,0,1,92.1,38.7V35.5h.925V38.7a5.069,5.069,0,0,0,.232,1.8c.139.324.508.463,1.064.463a5.1,5.1,0,0,0,.833-.093,1.754,1.754,0,0,0,.647-.231l.231-.093Z" transform="translate(-8.355 -3.216)" fill="url(#linear-gradient-7)"/>
  <path id="Pfad_17519" data-name="Pfad 17519" d="M99.945,41.6H99.02V35.444h.925v.416a3.858,3.858,0,0,1,1.9-.556,1.879,1.879,0,0,1,1.665.647,4.871,4.871,0,0,1,.416,2.36V41.55H103V38.358a4.947,4.947,0,0,0-.232-1.758c-.138-.325-.508-.463-1.064-.463a5.077,5.077,0,0,0-.832.093,3.263,3.263,0,0,0-.648.231l-.231.093Z" transform="translate(-8.982 -3.203)" fill="url(#linear-gradient-8)"/>
  <path id="Pfad_17520" data-name="Pfad 17520" d="M107.488,40.547a1.722,1.722,0,0,0,.555.093,5.129,5.129,0,0,0,.787-.093,5.868,5.868,0,0,0,.694-.231l.232-.093V36.06a8.392,8.392,0,0,0-1.48-.139,1.369,1.369,0,0,0-1.3.6,3.834,3.834,0,0,0-.37,1.85,3,3,0,0,0,.416,1.9A4.2,4.2,0,0,1,107.488,40.547ZM110.68,32.5v8.788h-.925v-.416a3.7,3.7,0,0,1-1.85.556,2.689,2.689,0,0,1-.879-.139,1.67,1.67,0,0,1-.694-.462,3.542,3.542,0,0,1-.647-2.452,4.283,4.283,0,0,1,.6-2.591,2.284,2.284,0,0,1,1.99-.786,9.326,9.326,0,0,1,1.527.138V32.406Z" transform="translate(-9.587 -2.94)" fill="url(#linear-gradient-9)"/>
  <path id="Pfad_17521" data-name="Pfad 17521" d="M116.673,38.168a2.6,2.6,0,0,0-.37-1.572,1.523,1.523,0,0,0-1.2-.463,1.3,1.3,0,0,0-1.2.509,2.782,2.782,0,0,0-.416,1.572Zm.37,2.637.37-.046.046.74a15.969,15.969,0,0,1-2.405.185,2.22,2.22,0,0,1-1.9-.787,4.1,4.1,0,0,1-.555-2.406c0-2.174.878-3.238,2.544-3.238a2.341,2.341,0,0,1,1.849.694,3.213,3.213,0,0,1,.6,2.174l-.046.695h-4.071a2.641,2.641,0,0,0,.37,1.526,1.483,1.483,0,0,0,1.3.509A12.947,12.947,0,0,0,117.043,40.805Z" transform="translate(-10.214 -3.198)" fill="url(#linear-gradient-10)"/>
  <path id="Pfad_17522" data-name="Pfad 17522" d="M120.345,41.6h-.926V35.444h.926v.416a3.856,3.856,0,0,1,1.9-.556,1.881,1.881,0,0,1,1.665.647,4.871,4.871,0,0,1,.416,2.36V41.55H123.4V38.358a4.947,4.947,0,0,0-.232-1.758c-.138-.325-.508-.463-1.064-.463a5.1,5.1,0,0,0-.833.093,3.272,3.272,0,0,0-.647.231l-.231.093Z" transform="translate(-10.833 -3.203)" fill="url(#linear-gradient-11)"/>
  <rect id="Rechteck_753" data-name="Rechteck 753" width="1.018" height="1.388" transform="translate(114.878 37.006)" fill="url(#linear-gradient-12)"/>
  <path id="Pfad_17523" data-name="Pfad 17523" d="M132.443,37.438a1.283,1.283,0,0,0,.324,1.017,1.618,1.618,0,0,0,1.064.324,1.336,1.336,0,0,0,1.064-.324,1.762,1.762,0,0,0,0-2.036,1.621,1.621,0,0,0-1.064-.324,1.334,1.334,0,0,0-1.064.324A1.479,1.479,0,0,0,132.443,37.438Zm-.093,5.088a.989.989,0,0,0,.37.878,2.879,2.879,0,0,0,1.341.231,2.6,2.6,0,0,0,1.388-.277.962.962,0,0,0,.416-.878c0-.416-.093-.694-.324-.833a2.358,2.358,0,0,0-1.2-.185L133,41.416a2.03,2.03,0,0,0-.555.508A2.705,2.705,0,0,0,132.351,42.527Zm1.711,1.942a3.6,3.6,0,0,1-2.035-.416,1.68,1.68,0,0,1-.6-1.434,1.592,1.592,0,0,1,.232-.832,3.626,3.626,0,0,1,.74-.694c-.232-.139-.324-.416-.324-.833a1.8,1.8,0,0,1,.324-.787l.092-.185a1.815,1.815,0,0,1-.971-1.849c0-1.388.74-2.082,2.313-2.082a4.284,4.284,0,0,1,1.11.139l.185.046,1.8-.046v.787l-1.157-.046a1.692,1.692,0,0,1,.416,1.248,2.013,2.013,0,0,1-.555,1.619,2.724,2.724,0,0,1-1.8.463,2.443,2.443,0,0,1-.6-.046,3.7,3.7,0,0,0-.231.694c0,.277.093.416.231.463a6.994,6.994,0,0,0,1.434.092,3.245,3.245,0,0,1,1.712.37,1.726,1.726,0,0,1,.508,1.434C136.792,43.821,135.912,44.469,134.062,44.469Z" transform="translate(-11.922 -3.207)" fill="url(#linear-gradient-13)"/>
  <path id="Pfad_17524" data-name="Pfad 17524" d="M138.9,39.806c0,.74.324,1.11.926,1.11a4.772,4.772,0,0,0,1.619-.277l.278-.093V38.511l-1.8.185a1.135,1.135,0,0,0-.786.324A1.323,1.323,0,0,0,138.9,39.806Zm3.794-2.5v3.145c0,.324.277.463.694.556l-.046.74a1.867,1.867,0,0,1-1.48-.509,5.539,5.539,0,0,1-2.22.509,1.714,1.714,0,0,1-1.295-.463,2.083,2.083,0,0,1-.463-1.388,1.587,1.587,0,0,1,.463-1.3,2.4,2.4,0,0,1,1.434-.508l1.943-.185V37.4a1.109,1.109,0,0,0-.278-.879.978.978,0,0,0-.74-.277,15.684,15.684,0,0,0-2.035.138l-.37.046-.046-.694a12.033,12.033,0,0,1,2.405-.277,2.082,2.082,0,0,1,1.527.463A1.747,1.747,0,0,1,142.7,37.308Z" transform="translate(-12.508 -3.216)" fill="url(#linear-gradient-14)"/>
  <path id="Pfad_17525" data-name="Pfad 17525" d="M145.832,41.6h-.925V35.444h.925v.416a3.856,3.856,0,0,1,1.9-.556,1.881,1.881,0,0,1,1.665.647,4.871,4.871,0,0,1,.416,2.36V41.55h-.925V38.358a4.947,4.947,0,0,0-.232-1.758c-.185-.325-.508-.463-1.064-.463a5.1,5.1,0,0,0-.833.093,2.414,2.414,0,0,0-.694.231l-.231.093Z" transform="translate(-13.145 -3.203)" fill="url(#linear-gradient-15)"/>
  <path id="Pfad_17526" data-name="Pfad 17526" d="M151.469,36.291v-.833H156v.833l-3.423,4.487H156v.833h-4.533v-.833l3.423-4.487Z" transform="translate(-13.74 -3.216)" fill="url(#linear-gradient-16)"/>
  <path id="Pfad_17527" data-name="Pfad 17527" d="M162.338,36.138c-.878,0-1.341.324-1.341.925a.588.588,0,0,0,.324.6,4.963,4.963,0,0,0,1.388.37,3.512,3.512,0,0,1,1.527.555,1.61,1.61,0,0,1,.463,1.3,1.532,1.532,0,0,1-.6,1.388,3.069,3.069,0,0,1-1.759.462,9.132,9.132,0,0,1-1.8-.185l-.37-.046.046-.787a14.541,14.541,0,0,0,2.128.185,2.331,2.331,0,0,0,1.11-.232.749.749,0,0,0,.37-.74.761.761,0,0,0-.324-.739,5.434,5.434,0,0,0-1.388-.37,3.061,3.061,0,0,1-1.527-.509,1.566,1.566,0,0,1-.462-1.249,1.583,1.583,0,0,1,.647-1.341,2.743,2.743,0,0,1,1.572-.416,10.742,10.742,0,0,1,1.9.185l.324.046v.786C163.587,36.231,162.847,36.138,162.338,36.138Z" transform="translate(-14.524 -3.203)" fill="url(#linear-gradient-17)"/>
  <path id="Pfad_17528" data-name="Pfad 17528" d="M166.426,41.366V35.213h.925v6.152Zm0-7.54V32.762h.925v1.064Z" transform="translate(-15.097 -2.972)" fill="url(#linear-gradient-18)"/>
  <path id="Pfad_17529" data-name="Pfad 17529" d="M171.407,35.356a11.249,11.249,0,0,1,1.388.139l.277.046-.046.74a9.652,9.652,0,0,0-1.434-.093,1.789,1.789,0,0,0-1.434.509,2.984,2.984,0,0,0-.37,1.849,2.985,2.985,0,0,0,.37,1.85c.231.37.694.509,1.434.509l1.434-.093.046.74c-.74.093-1.341.185-1.711.185a2.281,2.281,0,0,1-1.99-.74,4.238,4.238,0,0,1-.555-2.5,3.652,3.652,0,0,1,.6-2.452A2.533,2.533,0,0,1,171.407,35.356Z" transform="translate(-15.314 -3.207)" fill="url(#linear-gradient-19)"/>
  <path id="Pfad_17530" data-name="Pfad 17530" d="M175.643,41.347h-.925V32.558h.925v3.007a4.235,4.235,0,0,1,1.9-.463,1.879,1.879,0,0,1,1.665.647,4.86,4.86,0,0,1,.416,2.36v3.238H178.7V38.156a4.947,4.947,0,0,0-.232-1.758c-.138-.324-.508-.463-1.064-.463a4.019,4.019,0,0,0-1.48.277l-.231.093v5.042Z" transform="translate(-15.849 -2.953)" fill="url(#linear-gradient-20)"/>
  <path id="Pfad_17531" data-name="Pfad 17531" d="M185.546,38.168a2.6,2.6,0,0,0-.37-1.572,1.49,1.49,0,0,0-1.157-.463,1.347,1.347,0,0,0-1.2.509,2.782,2.782,0,0,0-.416,1.572Zm.324,2.637.37-.046v.74a15.989,15.989,0,0,1-2.406.185,2.22,2.22,0,0,1-1.9-.787,4.1,4.1,0,0,1-.556-2.406c0-2.174.879-3.238,2.544-3.238a2.343,2.343,0,0,1,1.85.694,3.213,3.213,0,0,1,.6,2.174l-.046.695h-4.07a2.634,2.634,0,0,0,.37,1.526,1.54,1.54,0,0,0,1.295.509A13.435,13.435,0,0,0,185.869,40.805Z" transform="translate(-16.453 -3.198)" fill="url(#linear-gradient-21)"/>
  <path id="Pfad_17532" data-name="Pfad 17532" d="M188.25,41.6V35.444h.925v.832a5.462,5.462,0,0,1,2.267-.971v.926a5.418,5.418,0,0,0-1.064.324,8.1,8.1,0,0,0-.833.37l-.324.138V41.55Z" transform="translate(-17.076 -3.203)" fill="url(#linear-gradient-22)"/>
  <rect id="Rechteck_754" data-name="Rechteck 754" width="1.018" height="1.388" transform="translate(174.458 37.006)" fill="url(#linear-gradient-23)"/>
  <path id="Pfad_17533" data-name="Pfad 17533" d="M13.74,29.237a3.3,3.3,0,0,1-3.293-3.293V6.627H6.55V25.944a7.2,7.2,0,0,0,7.19,7.19h6.385v-3.9Z" transform="translate(-0.594 -0.601)" fill="#fff"/>
  <path id="Pfad_17534" data-name="Pfad 17534" d="M35.652,36.318l-2.911-4.556a7.205,7.205,0,0,0,2.942-5.819V13.816a7.2,7.2,0,0,0-7.19-7.189H15.121v3.9H28.494a3.3,3.3,0,0,1,3.293,3.293V25.944a3.3,3.3,0,0,1-3.293,3.293H24.8v3.9h4.236L35.386,36.6l.687.376Z" transform="translate(-1.372 -0.601)" fill="#fff"/>
  <rect id="Rechteck_755" data-name="Rechteck 755" width="2.267" height="22.204" transform="translate(49.377 0)" fill="#5d5d5d"/>
  <path id="Pfad_17535" data-name="Pfad 17535" d="M70.588,14.412a6.489,6.489,0,0,0-.878-3.932A3.425,3.425,0,0,0,66.8,9.324a3.869,3.869,0,0,0-3.053,1.2,6.094,6.094,0,0,0-1.064,3.885Zm.833,6.569.879-.093.046,1.8a42.94,42.94,0,0,1-5.921.463c-2.174,0-3.747-.647-4.626-1.9-.926-1.248-1.342-3.238-1.342-5.875,0-5.319,2.129-7.956,6.338-7.956a5.768,5.768,0,0,1,4.579,1.712C72.392,10.295,72.9,12.053,72.9,14.5l-.139,1.711H62.771a6.389,6.389,0,0,0,.925,3.747,3.757,3.757,0,0,0,3.146,1.2C68.322,21.165,69.848,21.12,71.421,20.981Z" transform="translate(-5.484 -0.674)" fill="#5d5d5d"/>
  <path id="Pfad_17536" data-name="Pfad 17536" d="M78.588,18.492c0,1.85.787,2.775,2.313,2.775a12.341,12.341,0,0,0,4.071-.694l.694-.231v-5l-4.487.416a2.931,2.931,0,0,0-1.989.787A2.865,2.865,0,0,0,78.588,18.492Zm9.344-6.2v7.771c.046.74.648,1.2,1.759,1.342l-.093,1.8a4.915,4.915,0,0,1-3.608-1.2,13.7,13.7,0,0,1-5.458,1.2,4.183,4.183,0,0,1-3.192-1.2,4.794,4.794,0,0,1-1.11-3.377,4.292,4.292,0,0,1,1.11-3.238A6.167,6.167,0,0,1,80.855,14.1l4.765-.463V12.34a3.262,3.262,0,0,0-.647-2.22,2.409,2.409,0,0,0-1.8-.647,38.258,38.258,0,0,0-5.042.324l-.926.093-.093-1.712a29.154,29.154,0,0,1,5.921-.647,5.129,5.129,0,0,1,3.747,1.2C87.561,9.379,87.932,10.628,87.932,12.294Z" transform="translate(-6.915 -0.683)" fill="#5d5d5d"/>
  <path id="Pfad_17537" data-name="Pfad 17537" d="M97.051,20.261a3.936,3.936,0,0,0,1.388.231,8.129,8.129,0,0,0,1.942-.277,8.614,8.614,0,0,0,1.666-.555l.6-.277V9.067A20.792,20.792,0,0,0,99.04,8.7a3.462,3.462,0,0,0-3.192,1.48,8.933,8.933,0,0,0-.926,4.579c0,2.36.37,3.932,1.065,4.718A3.149,3.149,0,0,0,97.051,20.261ZM104.961,0V22.2h-2.267V21.186a9.445,9.445,0,0,1-4.626,1.341,6.058,6.058,0,0,1-2.128-.324,4.192,4.192,0,0,1-1.712-1.11c-1.11-1.11-1.619-3.1-1.619-6.06s.508-5.042,1.48-6.383q1.457-1.942,4.857-1.943a18.578,18.578,0,0,1,3.747.416V0Z" transform="translate(-8.401 0)" fill="#5d5d5d"/>
  <path id="Pfad_17538" data-name="Pfad 17538" d="M116.738,10.841a3.088,3.088,0,0,0-2.729,1.064,6.848,6.848,0,0,0-.694,3.608c0,2.73.878,4.071,2.591,4.071a7.776,7.776,0,0,0,2.312-.324l.416-.093V10.98A17.237,17.237,0,0,0,116.738,10.841Zm-1.434,12.4a5.7,5.7,0,0,1-4.626-1.758c-.971-1.157-1.434-3.238-1.434-6.245s.556-5.088,1.665-6.2,3.053-1.711,5.829-1.711a42.1,42.1,0,0,1,4.811.324l1.11.092V28.419h-4.071V22.406A8.729,8.729,0,0,1,115.3,23.239Z" transform="translate(-9.91 -0.665)" fill="#5d5d5d"/>
  <path id="Pfad_17539" data-name="Pfad 17539" d="M136.367,7.733h4.071V22.905h-4.025v-.833a8.3,8.3,0,0,1-3.794,1.2c-2.081,0-3.515-.6-4.255-1.758s-1.11-3.1-1.11-5.829V7.733h4.071v8a8.866,8.866,0,0,0,.37,3.053c.231.556.832.833,1.758.833a7.458,7.458,0,0,0,2.5-.416l.416-.139Z" transform="translate(-11.543 -0.701)" fill="#5d5d5d"/>
  <path id="Pfad_17540" data-name="Pfad 17540" d="M153.7,13.895a4.4,4.4,0,0,0-.555-2.544,2.51,2.51,0,0,0-2.036-.695,2.437,2.437,0,0,0-2.035.74,3.971,3.971,0,0,0-.6,2.5Zm-4.486,5.134a2.97,2.97,0,0,0,2.035.6c1.9,0,3.562-.046,5.042-.185l.833-.093.046,3.007a27.381,27.381,0,0,1-6.291.833c-2.267,0-3.932-.6-4.949-1.8S144.4,18.2,144.4,15.467c0-5.458,2.221-8.141,6.707-8.141,4.395,0,6.615,2.266,6.615,6.846l-.324,2.822h-8.927A2.835,2.835,0,0,0,149.209,19.029Z" transform="translate(-13.098 -0.665)" fill="#5d5d5d"/>
  <rect id="Rechteck_756" data-name="Rechteck 756" width="4.071" height="22.204" transform="translate(147.073 0)" fill="#5d5d5d"/>
  <rect id="Rechteck_757" data-name="Rechteck 757" width="4.071" height="22.204" transform="translate(154.66 0)" fill="#5d5d5d"/>
  <path id="Pfad_17541" data-name="Pfad 17541" d="M186.711,13.895a4.4,4.4,0,0,0-.555-2.544,2.509,2.509,0,0,0-2.035-.695,2.438,2.438,0,0,0-2.036.74,3.971,3.971,0,0,0-.6,2.5Zm-4.486,5.134a2.971,2.971,0,0,0,2.035.6c1.9,0,3.562-.046,5.042-.185l.833-.093.046,3.007a27.381,27.381,0,0,1-6.291.833c-2.267,0-3.932-.6-4.949-1.8s-1.527-3.192-1.527-5.921c0-5.458,2.22-8.141,6.708-8.141,4.394,0,6.614,2.266,6.614,6.846l-.324,2.822h-8.927A2.652,2.652,0,0,0,182.225,19.029Z" transform="translate(-16.093 -0.665)" fill="#5d5d5d"/>
  <path id="Pfad_17542" data-name="Pfad 17542" d="M193.731,1.711V2.729h.6a.566.566,0,0,0,.416-.138.566.566,0,0,0,.138-.416c0-.324-.231-.509-.647-.509h-.508Zm.045,1.527v1.11h-.6v-3.1h1.11a1.532,1.532,0,0,1,.879.231.813.813,0,0,1,.277.694,1.221,1.221,0,0,1-.139.647,1.083,1.083,0,0,1-.416.37l.556,1.157h-.6l-.509-1.11Zm.509-2.822a2,2,0,0,0-1.573.694,2.427,2.427,0,0,0-.647,1.665,2.428,2.428,0,0,0,.647,1.666,2.075,2.075,0,0,0,1.573.694,2.007,2.007,0,0,0,1.573-.694,2.423,2.423,0,0,0,.647-1.666,2.423,2.423,0,0,0-.647-1.665A2,2,0,0,0,194.286.416Zm0,5.135a2.653,2.653,0,0,1-1.943-.787,2.839,2.839,0,0,1-.786-1.99A2.8,2.8,0,0,1,192.3.787,2.646,2.646,0,0,1,194.239,0a2.473,2.473,0,0,1,1.9.787,2.8,2.8,0,0,1,.74,1.989,2.8,2.8,0,0,1-.74,1.99A2.309,2.309,0,0,1,194.286,5.551Z" transform="translate(-17.376 0)" fill="#5d5d5d"/>
</svg>
