<svg width="150" height="20" viewBox="0 0 150 20" fill="none" xmlns="http://www.w3.org/2000/svg">
<g clip-path="url(#clip0_317_149)">
<path d="M99.32 9.72996C99.3786 8.46039 99.1792 7.19212 98.7337 6.00182C98.2882 4.81152 97.606 3.72391 96.7283 2.80475C95.8506 1.88558 94.7956 1.15395 93.6271 0.654079C92.4586 0.154209 91.2009 -0.103516 89.93 -0.103516C88.6591 -0.103516 87.4014 0.154209 86.2329 0.654079C85.0644 1.15395 84.0094 1.88558 83.1317 2.80475C82.254 3.72391 81.5718 4.81152 81.1263 6.00182C80.6808 7.19212 80.4814 8.46039 80.54 9.72996C80.4814 10.9995 80.6808 12.2678 81.1263 13.4581C81.5718 14.6484 82.254 15.736 83.1317 16.6552C84.0094 17.5743 85.0644 18.306 86.2329 18.8058C87.4014 19.3057 88.6591 19.5634 89.93 19.5634C91.2009 19.5634 92.4586 19.3057 93.6271 18.8058C94.7956 18.306 95.8506 17.5743 96.7283 16.6552C97.606 15.736 98.2882 14.6484 98.7337 13.4581C99.1792 12.2678 99.3786 10.9995 99.32 9.72996ZM89.93 2.85996C93.59 2.85996 96.24 5.74996 96.24 9.72996C96.24 13.71 93.59 16.59 89.93 16.59C86.27 16.59 83.61 13.7 83.61 9.72996C83.61 5.75996 86.27 2.85996 89.93 2.85996ZM131.3 19.06H133.81C133.86 19.0596 133.91 19.0477 133.955 19.0251C134 19.0026 134.039 18.97 134.07 18.93C134.1 18.8907 134.12 18.8447 134.129 18.796C134.138 18.7473 134.135 18.6972 134.12 18.65L129.37 0.649959C129.351 0.582069 129.31 0.522129 129.255 0.478934C129.199 0.43574 129.131 0.411565 129.06 0.409959H125.8C125.73 0.410407 125.663 0.434337 125.608 0.477883C125.554 0.521429 125.516 0.582051 125.5 0.649959L120.74 18.65C120.725 18.6978 120.723 18.7488 120.733 18.7979C120.744 18.847 120.767 18.8925 120.8 18.93C120.828 18.9698 120.866 19.0024 120.909 19.025C120.953 19.0476 121.001 19.0596 121.05 19.06H123.46C123.535 19.0594 123.607 19.0333 123.666 18.9861C123.724 18.9388 123.764 18.8732 123.78 18.8L124.45 15.5H130.33L130.99 18.8C131.004 18.8724 131.042 18.9378 131.099 18.9852C131.155 19.0325 131.226 19.059 131.3 19.06ZM127.34 2.99996H127.49L129.81 13.08H125L127.34 2.99996ZM137.52 19H141C145.15 19 150 16.57 150 9.73996C150.055 8.44681 149.84 7.1564 149.368 5.95112C148.896 4.74585 148.178 3.65218 147.26 2.73996C145.538 1.21134 143.302 0.38981 141 0.439959H137.51C137.425 0.439959 137.344 0.473673 137.284 0.533685C137.224 0.593696 137.19 0.675089 137.19 0.759959V18.76C137.208 18.8321 137.252 18.8956 137.312 18.9394C137.372 18.9832 137.446 19.0046 137.52 19ZM141.44 16.46H140.16V2.99996H141.44C145.58 2.99996 147.04 6.63996 147.04 9.74996C147 16 142.76 16.5 141.44 16.5V16.46ZM74.23 19.05H77C77.0849 19.05 77.1663 19.0162 77.2263 18.9562C77.2863 18.8962 77.32 18.8148 77.32 18.73V0.759959C77.32 0.675089 77.2863 0.593696 77.2263 0.533685C77.1663 0.473673 77.0849 0.439959 77 0.439959H74.58C74.4949 0.441013 74.4132 0.473006 74.35 0.529959C74.2938 0.593614 74.2619 0.675078 74.26 0.759959V13.76L68.39 0.629959C68.3643 0.572205 68.3222 0.52334 68.2688 0.489527C68.2154 0.455714 68.1532 0.438466 68.09 0.439959H65.38C65.2951 0.439959 65.2137 0.473673 65.1537 0.533685C65.0937 0.593696 65.06 0.675089 65.06 0.759959V18.76C65.06 18.8448 65.0937 18.9262 65.1537 18.9862C65.2137 19.0462 65.2951 19.08 65.38 19.08H67.74C67.8249 19.08 67.9063 19.0462 67.9663 18.9862C68.0263 18.9262 68.06 18.8448 68.06 18.76V5.75996L73.94 18.87C73.9643 18.9259 74.0051 18.9731 74.0569 19.0052C74.1087 19.0374 74.1691 19.053 74.23 19.05ZM114.26 19.07H116.62C116.663 19.07 116.705 19.0614 116.745 19.0447C116.784 19.028 116.82 19.0035 116.85 18.9727C116.88 18.9419 116.903 18.9055 116.919 18.8655C116.934 18.8255 116.941 18.7828 116.94 18.74V0.769959C116.94 0.685089 116.906 0.603696 116.846 0.543685C116.786 0.483673 116.705 0.449959 116.62 0.449959H113.91C113.848 0.44913 113.788 0.466775 113.736 0.500628C113.684 0.534481 113.644 0.582999 113.62 0.639959L109.83 8.82996L106 0.639959C105.977 0.582169 105.937 0.532857 105.885 0.498825C105.833 0.464794 105.772 0.44772 105.71 0.449959H103C102.915 0.449959 102.834 0.483673 102.774 0.543685C102.714 0.603696 102.68 0.685089 102.68 0.769959V18.77C102.679 18.8128 102.686 18.8555 102.701 18.8955C102.717 18.9355 102.74 18.9719 102.77 19.0027C102.8 19.0335 102.836 19.058 102.875 19.0747C102.915 19.0914 102.957 19.1 103 19.1H105.36C105.448 19.1 105.531 19.0652 105.593 19.0033C105.655 18.9414 105.69 18.8575 105.69 18.77V5.99996L109.51 14.44C109.533 14.4977 109.573 14.5471 109.625 14.5811C109.677 14.6151 109.738 14.6322 109.8 14.63C109.861 14.6283 109.921 14.6097 109.972 14.5761C110.023 14.5426 110.064 14.4954 110.09 14.44L113.91 5.87996V18.74C113.908 18.7855 113.916 18.8308 113.934 18.8729C113.951 18.915 113.977 18.953 114.01 18.9842C114.043 19.0155 114.083 19.0393 114.126 19.054C114.169 19.0688 114.215 19.0743 114.26 19.07ZM31.7 16.54C32.1284 17.4132 32.793 18.1489 33.6186 18.6633C34.4441 19.1777 35.3973 19.4502 36.37 19.45C37.0467 19.4826 37.7227 19.3737 38.355 19.1303C38.9872 18.8868 39.5616 18.5141 40.0416 18.036C40.5216 17.5579 40.8966 16.9849 41.1425 16.3536C41.3885 15.7224 41.5 15.0468 41.47 14.37C41.47 11.54 39.17 9.68996 37.32 8.19996C35.88 7.04996 34.75 6.12996 34.75 4.92996C34.7452 4.66697 34.7969 4.40603 34.9016 4.16471C35.0062 3.92339 35.1614 3.70731 35.3566 3.53104C35.5518 3.35477 35.7826 3.2224 36.0333 3.14287C36.284 3.06333 36.5489 3.03847 36.81 3.06996C37.1587 3.06891 37.5037 3.14139 37.8224 3.28269C38.1412 3.42398 38.4266 3.63091 38.66 3.88996L38.89 4.12996C38.9184 4.16278 38.9538 4.1888 38.9936 4.20611C39.0334 4.22342 39.0766 4.23157 39.12 4.22996C39.1627 4.24016 39.2073 4.24016 39.25 4.22996L41.05 3.40996C41.0921 3.39234 41.1294 3.36504 41.1589 3.33029C41.1885 3.29554 41.2094 3.25432 41.22 3.20996C41.2395 3.1694 41.2496 3.12497 41.2496 3.07996C41.2496 3.03495 41.2395 2.99052 41.22 2.94996L40.92 2.48996C40.4936 1.72865 39.8705 1.09589 39.1158 0.657851C38.3611 0.219816 37.5026 -0.00740185 36.63 -4.12911e-05C36.0016 -0.0384712 35.3719 0.0528 34.7803 0.268097C34.1886 0.483393 33.6476 0.818111 33.1908 1.25143C32.734 1.68476 32.3713 2.20742 32.1252 2.78692C31.879 3.36642 31.7547 3.99037 31.76 4.61996C31.76 7.05996 33.76 8.71996 35.5 10.19C37.04 11.48 38.5 12.7 38.5 14.35C38.5107 14.6374 38.4641 14.9241 38.3629 15.1934C38.2618 15.4627 38.1081 15.7092 37.9109 15.9186C37.7136 16.128 37.4767 16.296 37.2138 16.413C36.951 16.53 36.6676 16.5935 36.38 16.6C35.9291 16.5839 35.4896 16.4534 35.103 16.2208C34.7164 15.9881 34.3953 15.6609 34.17 15.27L34 14.94C33.9717 14.8968 33.9331 14.8615 33.8877 14.837C33.8423 14.8126 33.7916 14.7998 33.74 14.8H33.61L31.61 15.62C31.5686 15.6359 31.531 15.6605 31.4999 15.6921C31.4688 15.7238 31.4448 15.7618 31.4297 15.8035C31.4145 15.8452 31.4084 15.8897 31.412 15.9339C31.4155 15.9782 31.4284 16.0212 31.45 16.06L31.7 16.54ZM44 3.40996H46.9V18.73C46.9 18.8148 46.9337 18.8962 46.9937 18.9562C47.0537 19.0162 47.1351 19.05 47.22 19.05H49.55C49.6349 19.05 49.7163 19.0162 49.7763 18.9562C49.8363 18.8962 49.87 18.8148 49.87 18.73V3.40996H52.72C52.7978 3.40016 52.8692 3.36217 52.9208 3.30319C52.9724 3.24421 53.0006 3.16833 53 3.08996V0.759959C53 0.718394 52.9917 0.677249 52.9755 0.638971C52.9593 0.600693 52.9356 0.566064 52.9057 0.537143C52.8758 0.508222 52.8405 0.4856 52.8017 0.470623C52.7629 0.455645 52.7215 0.448618 52.68 0.449959H44.05C44.0085 0.448618 43.9671 0.455645 43.9283 0.470623C43.8895 0.4856 43.8542 0.508222 43.8243 0.537143C43.7944 0.566064 43.7707 0.600693 43.7545 0.638971C43.7383 0.677249 43.73 0.718394 43.73 0.759959V3.08996C43.7269 3.16739 43.7528 3.2432 43.8028 3.30243C43.8528 3.36166 43.9231 3.40002 44 3.40996ZM0.32 19.05H29C29.0516 19.0501 29.1023 19.0374 29.1477 19.0129C29.1931 18.9885 29.2317 18.9531 29.26 18.91C29.2845 18.8656 29.2974 18.8157 29.2974 18.765C29.2974 18.7142 29.2845 18.6644 29.26 18.62L28.13 16.28C28.0998 16.2236 28.0552 16.1763 28.0007 16.1429C27.9463 16.1096 27.8839 16.0913 27.82 16.09H3V0.759959C3.00059 0.714678 2.99126 0.669817 2.97265 0.628531C2.95405 0.587245 2.92662 0.550536 2.89231 0.520987C2.85799 0.491438 2.81762 0.469766 2.77403 0.457494C2.73044 0.445223 2.68469 0.442651 2.64 0.449959H0.32C0.278457 0.448618 0.237068 0.455645 0.198295 0.470623C0.159522 0.4856 0.124157 0.508222 0.0943035 0.537143C0.0644498 0.566064 0.0407169 0.600693 0.0245163 0.638971C0.00831579 0.677249 -2.15898e-05 0.718394 4.19857e-08 0.759959V18.76C0.0074917 18.8395 0.0444856 18.9134 0.103705 18.9671C0.162924 19.0207 0.240082 19.0503 0.32 19.05Z" fill="#3C3C3C"/>
<path d="M8.51007 12.7299C8.52581 12.7979 8.56398 12.8585 8.61841 12.902C8.67284 12.9456 8.74036 12.9695 8.81007 12.9699H11.3201C11.3697 12.9715 11.4191 12.9615 11.4642 12.9407C11.5094 12.9198 11.549 12.8888 11.5801 12.8499C11.6094 12.8103 11.6292 12.7644 11.6379 12.7158C11.6466 12.6672 11.6439 12.6173 11.6301 12.5699L11.4601 11.9699C11.257 11.2407 11.1561 10.4869 11.1601 9.72995C11.1601 5.72995 13.8101 2.85995 17.4701 2.85995C21.1301 2.85995 23.7801 5.74995 23.7801 9.72995C23.7841 10.4869 23.6831 11.2407 23.4801 11.9699L23.3101 12.5699C23.2956 12.6174 23.2928 12.6676 23.3017 12.7163C23.3107 12.7651 23.3312 12.811 23.3616 12.8501C23.392 12.8893 23.4313 12.9206 23.4763 12.9415C23.5212 12.9623 23.5705 12.9721 23.6201 12.9699H26.1201C26.1906 12.9683 26.2588 12.9442 26.3146 12.901C26.3704 12.8578 26.4108 12.7978 26.4301 12.7299L26.5201 12.3899C26.7443 11.5176 26.8585 10.6206 26.8601 9.71995C26.9187 8.45038 26.7192 7.18211 26.2738 5.99181C25.8283 4.80151 25.1461 3.7139 24.2684 2.79474C23.3907 1.87557 22.3357 1.14394 21.1672 0.644069C19.9987 0.1442 18.741 -0.113525 17.4701 -0.113525C16.1991 -0.113525 14.9414 0.1442 13.7729 0.644069C12.6044 1.14394 11.5494 1.87557 10.6717 2.79474C9.79402 3.7139 9.11182 4.80151 8.66637 5.99181C8.22091 7.18211 8.02146 8.45038 8.08007 9.71995C8.07761 10.617 8.18848 11.5107 8.41007 12.3799L8.51007 12.7299Z" fill="#3C3C3C"/>
</g>
<defs>
<clipPath id="clip0_317_149">
<rect width="150" height="19.45" fill="white"/>
</clipPath>
</defs>
</svg>
