<svg width="216" height="75" viewBox="0 0 216 75" fill="none" xmlns="http://www.w3.org/2000/svg">
<path d="M31.5762 53.6835C31.9963 54.1478 32.8144 54.7448 33.146 55.0985C33.3008 55.2754 33.3892 55.4744 33.3892 55.6955C33.3892 56.7347 32.4606 57.2432 30.5813 57.2211C28.5692 57.2211 26.8447 56.2262 25.8718 54.8332C25.098 53.5287 23.9925 50.6102 22.5774 46.0334C21.9141 43.734 20.2338 42.4074 17.5364 42.0536C17.2047 42.0315 16.0771 42.0094 14.1535 42.0094C13.8882 42.0315 13.7334 42.4074 13.6892 43.0928C13.7113 44.0878 13.7334 45.4807 13.7334 47.2274C13.7334 48.2666 13.8219 49.6816 13.9767 51.4725C14.1535 53.2855 14.242 54.7006 14.242 55.7397C14.242 56.7347 13.1807 57.2432 11.036 57.2432C8.89136 57.2211 7.80797 56.7347 7.80797 55.7397C7.80797 54.7006 7.89641 53.2855 8.07329 51.4725C8.22806 49.6595 8.29439 48.2444 8.3165 47.2274C8.3165 38.6487 8.22806 33.3423 8.02907 31.3303C8.00696 30.8439 7.91852 30.0037 7.80797 28.8319C7.69742 27.66 7.63109 26.842 7.63109 26.3998C7.63109 25.4933 8.11751 25.0511 9.11246 25.029C9.39989 25.029 9.93053 25.0511 10.6823 25.0953C11.4119 25.1395 12.0089 25.1616 12.429 25.1616C12.5837 25.1616 13.5566 25.1174 15.3917 25.029C17.2268 24.9405 19.0177 24.8963 20.7644 24.8963C23.9704 24.8963 26.4246 25.8691 27.6848 27.041C28.326 27.6379 28.8346 28.3233 29.2104 29.1414C29.9622 30.7776 30.0948 31.8831 30.0948 33.0991C30.0948 35.8186 29.321 37.897 27.9723 39.1572C27.2869 39.7984 26.7562 40.2406 26.3804 40.4838C25.9824 40.7492 25.4517 41.0366 24.7884 41.324H24.7442C26.712 42.0094 28.127 43.5792 28.9893 45.9892C29.1441 46.4093 29.3873 47.2495 29.7411 48.4877C30.0948 49.7258 30.4265 50.8313 30.7581 51.782C31.0677 52.7549 31.333 53.3961 31.5762 53.6835ZM16.4088 39.1572C17.0721 39.1572 17.6027 39.1572 18.0228 39.1351C18.4208 39.113 19.0398 39.0025 19.9021 38.8035C20.7423 38.6045 21.4277 38.3392 21.9362 37.9854C22.9754 37.3 23.9704 35.7744 23.9704 33.7182C23.9704 29.6721 21.8257 27.66 17.5364 27.66C15.8339 27.66 14.7947 27.8148 14.4189 28.1465C14.2641 28.3455 14.1535 28.5666 14.0651 28.7877C13.9103 29.4731 13.844 30.8218 13.8219 32.8117L13.7777 39.113C14.2862 39.1351 15.1706 39.1572 16.4088 39.1572ZM43.7712 34.3594C47.154 34.3594 49.7188 35.6196 50.9348 37.1231C51.5318 37.8749 52.0182 38.7372 52.372 39.6879C53.0574 41.6336 53.0353 42.7391 52.9689 43.7782C52.8584 44.8395 52.4825 45.3923 51.8413 45.4586L38.3321 46.7189C38.4869 48.355 39.0175 49.77 39.924 50.9861C41.1843 52.7328 42.5551 53.4624 45.0315 53.4624C47.0214 53.4624 48.9007 52.578 50.6916 50.7871C51.2223 50.367 51.9961 50.3891 52.4162 50.7429C52.9689 51.2072 53.0132 51.782 52.5931 52.4675C50.3157 55.7176 47.1761 57.3538 43.1742 57.3538C40.5873 57.3316 38.1995 56.3588 36.0548 54.4795C33.888 52.6001 32.7604 49.9469 32.672 46.542C32.5835 43.0044 33.6006 40.0859 35.701 37.7864C37.8015 35.5091 40.4768 34.3594 43.7712 34.3594ZM38.1995 43.8667L48.2595 42.9602C48.2595 42.6727 48.3037 42.2747 47.9721 40.8818C47.7952 40.1964 47.552 39.5773 47.2203 39.0688C46.557 38.0296 44.9651 37.101 42.9089 37.2116C40.9632 37.3221 39.5482 38.3834 39.0175 39.6879C38.4648 40.9924 38.1553 42.3411 38.1553 43.2255L38.1995 43.8667ZM74.6491 45.4586C74.6491 47.1611 74.627 49.5932 74.5828 52.7991C74.5386 56.0051 74.5164 58.1718 74.5164 59.3437C74.5164 61.3557 73.6984 63.3677 72.1065 65.0923C70.4924 66.8168 67.6845 68.0108 64.2353 68.0108C60.5429 68.0108 57.8455 67.0822 56.0988 65.247L55.9662 65.1144C55.325 64.4068 54.8165 62.8149 56.1431 61.6652C57.2707 60.7587 58.2435 60.7366 59.0837 61.5768L59.9017 62.3948C60.0786 62.5717 60.7198 63.1466 61.0736 63.4119C61.4273 63.6772 62.0685 64.0752 62.5992 64.2521C63.1077 64.429 63.771 64.6058 64.4122 64.6058C65.7609 64.6058 66.9769 64.23 68.0603 63.4561C69.1437 62.6823 69.8291 61.621 70.1387 60.2502C70.2492 59.7637 70.3156 59.1004 70.3377 58.2382C70.3598 57.3759 70.3377 56.6462 70.3156 56.0051L70.2713 55.0985C68.7457 56.6241 66.5569 57.398 63.7489 57.398C61.1178 57.398 58.8847 56.4251 57.0275 54.4574C55.1702 52.4896 54.2416 49.7921 54.2416 46.343C54.2416 42.9159 55.2144 40.0638 57.138 37.8085C59.0616 35.5754 61.5379 34.4478 64.567 34.4478C65.6061 34.4478 66.579 34.6026 67.5076 34.89C68.4362 35.1996 69.0995 35.5091 69.4975 35.8186L70.1387 36.3051L70.0723 35.6639C70.0723 35.1553 70.3819 34.7574 70.9789 34.492C72.1949 34.1604 73.2783 34.2046 74.2511 34.6247C74.6491 34.7795 74.8481 35.1553 74.8481 35.7523C74.8481 35.9292 74.7597 37.9191 74.6933 40.9039C74.6712 42.4074 74.6491 43.933 74.6491 45.4586ZM65.186 37.7643C63.7489 37.7643 62.4665 38.3613 61.361 39.5552C60.2555 40.7713 59.7028 42.6727 59.7028 45.2817C59.7028 48.4213 60.2776 50.6102 61.4052 51.8705C62.5328 53.1308 63.7931 53.7498 65.186 53.7498C66.6011 53.7498 67.7729 53.3297 68.6794 52.4675C69.0111 52.1358 69.2543 51.8484 69.409 51.6052C69.5638 51.362 69.6965 50.8534 69.8291 50.0354C69.9618 49.2394 70.0281 48.156 70.0281 46.7631C70.0281 42.7833 69.807 40.4396 69.3648 39.7542C68.5468 38.4276 67.1538 37.7643 65.186 37.7643ZM79.1277 25.847C79.7247 25.2943 80.4322 25.029 81.2724 25.029C82.1126 25.029 82.8201 25.2722 83.417 25.7586C84.014 26.245 84.3014 26.8862 84.3014 27.66C84.3014 28.4339 84.014 29.0972 83.4613 29.6499C82.9085 30.2027 82.201 30.468 81.3608 30.468C79.6141 30.468 78.2433 29.4067 78.2433 27.8369C78.2433 27.0631 78.5307 26.3998 79.1277 25.847ZM83.7045 40.7492C83.7045 40.9924 83.6824 42.3632 83.6381 44.8616C83.5939 47.36 83.5718 49.5932 83.5718 51.5167C83.5718 52.0695 83.6381 52.8875 83.7487 53.993C83.8592 55.0985 83.9035 55.6955 83.9035 55.784C83.9698 56.7126 83.0633 57.1769 81.1839 57.1769C79.3488 57.1769 78.4202 56.7126 78.4202 55.784C78.4202 55.6734 78.4865 55.0543 78.5971 53.9709C78.7076 52.8875 78.7739 52.0695 78.7739 51.5167C78.7739 49.5932 78.7518 47.36 78.6855 44.8616C78.6192 42.3632 78.5971 40.9924 78.5971 40.7492C78.5971 39.7763 78.575 38.8035 78.5307 37.8306C78.4865 36.8799 78.4644 36.1724 78.4644 35.7523C78.4644 34.8237 79.3709 34.3594 81.1839 34.3594C82.9748 34.3594 83.8592 34.8237 83.8592 35.7523C83.8592 36.1724 83.8371 36.8799 83.7929 37.8306C83.7266 38.8035 83.7045 39.7763 83.7045 40.7492ZM97.6683 34.2267C100.211 34.2267 102.731 35.1774 104.81 36.9462C106.888 38.7372 108.259 41.8547 108.259 45.5912C108.259 49.0625 107.176 51.9368 105.031 54.2141C102.886 56.4915 100.233 57.6412 97.0934 57.6412C94.6171 57.6412 92.0965 56.7347 89.9519 55.0322C87.8072 53.3297 86.3479 50.2565 86.3479 46.4535C86.3479 42.7169 87.4977 39.7321 89.8192 37.5211C92.1187 35.3322 94.7276 34.2267 97.6683 34.2267ZM98.0441 54.4574C99.6139 54.4574 100.808 53.8162 101.626 52.5559C102.444 51.2956 102.842 49.6816 102.842 47.7138C102.842 44.1541 102.267 41.5451 101.095 39.9311C99.9235 38.3171 98.4421 37.5211 96.6291 37.5211C95.3025 37.5211 94.1749 38.1402 93.2463 39.4005C92.2955 40.6607 91.8312 42.5401 91.8312 45.0827C91.8312 48.1339 92.4945 50.4554 93.8211 52.0474C95.1256 53.6614 96.5406 54.4574 98.0441 54.4574ZM119.415 27.0189C118.928 26.9746 117.845 27.4389 117.779 29.0088C117.779 29.252 117.933 30.07 118.243 31.4851C118.53 32.9222 118.729 34.0941 118.818 35.0006H122.002C122.466 35.0006 122.864 35.3543 122.864 35.8629V36.8578C122.864 37.3221 122.466 37.6759 122.002 37.6759H118.862C118.796 42.2526 118.774 46.2767 118.774 49.7037C118.774 51.0082 118.862 52.18 119.017 53.2413C119.26 54.6785 119.371 55.5407 119.371 55.8282C119.371 56.6905 118.552 57.0663 117.845 57.1327C117.469 57.1548 116.938 57.1769 116.209 57.1769C114.816 57.1769 114.263 57.199 113.644 56.7347C113.312 56.5136 113.158 56.1819 113.158 55.7397C113.158 54.7227 113.379 54.1699 113.489 53.2413C113.644 52.18 113.71 51.0082 113.71 49.7037C113.71 49.5268 113.71 48.753 113.688 47.4043C113.666 46.0556 113.666 44.4415 113.666 42.5843V37.6759H111.124C110.659 37.6759 110.305 37.2779 110.305 36.8578V35.8629C110.305 35.3985 110.703 35.0006 111.124 35.0006H113.622C113.511 34.3594 113.312 33.3202 113.312 31.2419C113.312 29.3625 113.931 27.7706 115.192 26.4219C116.452 25.0953 118.287 24.432 120.719 24.432C122.864 24.432 124.456 25.0511 125.539 26.2892C126.004 26.8199 126.468 28.058 126.291 29.053C126.048 30.1364 125.384 30.6891 124.257 30.6891C123.284 30.6891 122.532 30.2469 122.002 29.3404C121.98 29.2741 121.847 29.0309 121.648 28.6108C121.427 28.1907 121.25 27.9033 121.139 27.7706C120.896 27.5053 120.277 27.0189 119.415 27.0189ZM139.392 54.6563C138.906 55.3196 138.42 55.8061 137.933 56.1377C136.717 57 135.015 57.4422 132.782 57.4422C130.416 57.4422 128.691 56.6684 127.586 55.1428C126.458 53.6172 125.839 51.8484 125.706 49.8806C125.507 45.0827 125.397 40.4396 125.397 35.9955C125.33 34.7795 126.237 34.3594 128.183 34.3594C130.106 34.3594 130.792 34.7352 130.792 35.9955C130.792 36.1724 130.77 37.698 130.747 40.5723C130.725 43.4687 130.703 45.5912 130.703 46.9842V47.4485C130.703 48.3108 130.725 49.0183 130.77 49.5268C130.814 50.0354 130.946 50.6987 131.19 51.4946C131.632 53.0865 132.848 53.9267 134.771 53.9267C136.164 53.9267 137.314 53.4624 138.221 52.5117C139.039 51.6715 139.437 50.1238 139.437 47.8465C139.437 40.5723 139.415 36.6146 139.392 35.9955C139.392 34.9121 140.277 34.3594 142.024 34.3594C143.881 34.3594 144.898 34.8458 144.832 35.9955C144.832 36.084 144.809 37.5653 144.743 40.4396C144.677 43.336 144.655 45.746 144.655 47.6696C144.655 49.5932 144.721 51.2072 144.876 52.5117C144.898 52.777 144.986 53.1971 145.141 53.7719C145.296 54.3689 145.384 54.789 145.406 55.0764C145.428 55.3639 145.362 55.7176 145.185 56.1819C144.898 56.602 144.235 56.9337 143.217 57.1769C142.2 57.398 141.427 57.3759 140.896 57.1327C140.166 56.8452 139.658 56.0051 139.392 54.6563ZM153.754 36.084V47.5811C153.754 48.3108 153.776 49.0846 153.798 49.9469C153.821 50.8092 153.843 51.4504 153.843 51.8484C153.843 52.4011 153.865 53.1308 153.931 54.0594C153.997 54.988 153.997 55.6071 153.975 55.9166C153.953 56.7568 153.047 57.1769 151.278 57.1769C149.465 57.1769 148.536 56.7568 148.514 55.9166C148.514 55.7176 148.536 55.1207 148.58 54.1699C148.625 53.2192 148.647 52.4453 148.647 51.8484C148.647 51.4504 148.669 50.8092 148.691 49.9469C148.713 49.0846 148.735 48.3108 148.735 47.5811C148.735 46.542 148.757 44.7732 148.779 42.2747C148.802 39.7763 148.802 37.698 148.779 36.084C148.779 35.2659 148.735 33.5634 148.647 30.9544C148.558 28.3676 148.514 26.7978 148.514 26.2892C148.514 25.8913 148.802 25.5596 149.376 25.2943C149.929 25.029 150.57 24.8963 151.278 24.8963C151.941 24.8963 152.56 25.029 153.135 25.2943C153.688 25.5817 153.975 25.9134 153.975 26.2892C153.975 26.842 153.931 28.4118 153.865 31.0429C153.798 33.674 153.754 35.3543 153.754 36.084ZM157.393 51.8263C157.99 51.163 158.808 50.8313 159.803 50.8313C160.798 50.8313 161.616 51.1409 162.235 51.7378C162.832 52.3348 163.141 53.1086 163.141 54.0594C163.141 56.1156 161.859 57.5085 159.803 57.5085C157.791 57.5085 156.486 56.1598 156.486 54.2805C156.486 53.3076 156.796 52.4896 157.393 51.8263ZM185.065 45.4144C185.065 48.3108 185.109 50.2786 185.219 51.2735C185.308 52.2906 185.573 53.1971 186.015 53.9709C186.281 54.2363 186.303 54.6785 186.082 55.3196C185.861 55.9608 185.352 56.4473 184.578 56.7789C183.893 57.0442 183.185 57.1327 182.5 57.0663C181.792 57 181.328 56.7789 181.085 56.403C180.709 55.8503 180.444 55.4081 180.267 55.0543C179.758 55.5629 178.918 56.0714 177.746 56.5578C176.574 57.0663 175.181 57.3095 173.567 57.3095C170.936 57.3095 168.747 56.3367 166.957 54.4131C165.166 52.4896 164.281 49.7921 164.281 46.3209C164.281 42.938 165.276 40.108 167.288 37.8085C169.278 35.5091 171.71 34.3594 174.562 34.3594C175.491 34.3594 176.42 34.5363 177.348 34.8679C178.277 35.2217 178.962 35.5754 179.404 35.9071L180.09 36.4377L180.178 26.3556C180.112 25.648 180.952 25.6038 181.262 25.4491C181.505 25.3606 181.991 25.3164 182.743 25.2943C183.473 25.2943 184.048 25.3827 184.446 25.5817C185.042 25.8249 185.352 26.0902 185.352 26.3998C185.352 26.4882 185.33 27.7706 185.286 30.2469C185.219 32.7232 185.175 35.487 185.131 38.5382C185.087 41.5893 185.065 43.8888 185.065 45.4144ZM180.046 46.6304V44.1099C180.046 43.535 180.068 42.5622 180.001 42.0094C179.957 41.1693 179.802 40.2185 179.493 39.8427C178.763 38.6266 177.083 37.6095 174.982 37.6095C173.656 37.6095 172.44 38.1844 171.356 39.3562C170.273 40.5281 169.72 42.3632 169.72 44.9058C169.72 50.8092 171.555 53.7719 175.204 53.7941C176.442 53.7941 177.614 53.2855 178.741 52.2906C179.073 52.0031 179.316 51.7157 179.471 51.4283C179.626 51.163 179.758 50.6323 179.869 49.8585C179.979 49.0846 180.046 48.0233 180.046 46.6304ZM199.095 34.3594C202.478 34.3594 205.042 35.6196 206.258 37.1231C206.855 37.8749 207.342 38.7372 207.695 39.6879C208.381 41.6336 208.359 42.7391 208.292 43.7782C208.182 44.8395 207.806 45.3923 207.165 45.4586L193.656 46.7189C193.81 48.355 194.341 49.77 195.248 50.9861C196.508 52.7328 197.879 53.4624 200.355 53.4624C202.345 53.4624 204.224 52.578 206.015 50.7871C206.546 50.367 207.32 50.3891 207.74 50.7429C208.292 51.2072 208.337 51.782 207.917 52.4675C205.639 55.7176 202.5 57.3538 198.498 57.3538C195.911 57.3316 193.523 56.3588 191.378 54.4795C189.212 52.6001 188.084 49.9469 187.995 46.542C187.907 43.0044 188.924 40.0859 191.025 37.7864C193.125 35.5091 195.8 34.3594 199.095 34.3594ZM193.523 43.8667L203.583 42.9602C203.583 42.6727 203.627 42.2747 203.296 40.8818C203.119 40.1964 202.876 39.5773 202.544 39.0688C201.881 38.0296 200.289 37.101 198.232 37.2116C196.287 37.3221 194.872 38.3834 194.341 39.6879C193.788 40.9924 193.479 42.3411 193.479 43.2255L193.523 43.8667Z" fill="#235770"/>
</svg>
